<svg width="24" height="24" viewBox="0 0 24 24" fill="none" xmlns="http://www.w3.org/2000/svg">
<path d="M9 10.75H6C5.59 10.75 5.25 10.41 5.25 10C5.25 9.59 5.59 9.25 6 9.25H9C9.41 9.25 9.75 9.59 9.75 10C9.75 10.41 9.41 10.75 9 10.75Z" fill="#292D32"/>
<path d="M17.24 22.75H6.75999C6.34999 22.75 6.00999 22.41 6.00999 22C6.00999 21.59 6.34999 21.25 6.75999 21.25H17.24C19.26 21.25 20.35 20.22 20.48 18.2L21 9.93998C21.05 9.22998 20.84 8.52998 20.41 7.95998C20.16 7.62998 20.23 7.15998 20.56 6.90998C20.89 6.65998 21.36 6.72998 21.61 7.05998C22.25 7.91998 22.57 8.96998 22.5 10.04L21.98 18.3C21.8 21.13 20.07 22.75 17.24 22.75Z" fill="#292D32"/>
<path d="M3.44001 21.21C3.20001 21.21 2.96001 21.09 2.81001 20.87C2.35001 20.17 2.08001 19.3 2.02001 18.29L1.50001 10.04C1.42001 8.79 1.85001 7.59 2.71001 6.68C3.56001 5.77 4.76001 5.25 6.00001 5.25C6.32001 5.25 6.63001 5.06 6.78001 4.76L7.50001 3.33C8.09001 2.16 9.57001 1.25 10.86 1.25H13.15C14.44 1.25 15.91 2.16 16.5 3.32L17.22 4.78C17.37 5.06 17.67 5.25 18 5.25C18.41 5.25 18.75 5.59 18.75 6C18.75 6.41 18.41 6.75 18 6.75C17.11 6.75 16.3 6.25 15.88 5.46L15.15 4C14.82 3.34 13.88 2.76 13.14 2.76H10.85C10.11 2.76 9.17001 3.34 8.83001 4.01L8.12001 5.44C7.70001 6.25 6.89001 6.75 6.00001 6.75C5.16001 6.75 4.38001 7.09 3.80001 7.7C3.23001 8.31 2.94001 9.11 3.00001 9.94L3.52001 18.2C3.56001 18.93 3.75001 19.57 4.07001 20.04C4.30001 20.39 4.20001 20.85 3.86001 21.08C3.73001 21.17 3.58001 21.21 3.44001 21.21Z" fill="#292D32"/>
<path d="M12 18.75C11.11 18.75 10.24 18.45 9.54 17.9C9.21 17.64 9.16 17.17 9.41 16.85C9.67 16.52 10.14 16.47 10.46 16.72C10.9 17.06 11.44 17.25 12 17.25C13.38 17.25 14.5 16.13 14.5 14.75C14.5 14.27 14.37 13.81 14.12 13.42C13.9 13.07 14 12.61 14.35 12.38C14.7 12.16 15.16 12.26 15.39 12.61C15.79 13.24 16.01 13.98 16.01 14.74C16 16.96 14.21 18.75 12 18.75Z" fill="#292D32"/>
<path d="M2 22.75C1.81 22.75 1.62 22.68 1.47 22.53C1.18 22.24 1.18 21.76 1.47 21.47L21.47 1.47C21.76 1.18 22.24 1.18 22.53 1.47C22.82 1.76 22.82 2.24 22.53 2.53L2.53 22.53C2.38 22.68 2.19 22.75 2 22.75Z" fill="#292D32"/>
</svg>
